<svg width="10" height="10" viewBox="0 0 10 10" fill="none" xmlns="http://www.w3.org/2000/svg">
<path d="M3.9876 7.84172C3.90843 7.84172 3.82926 7.81255 3.76676 7.75005L1.2376 5.22088C1.11676 5.10005 1.11676 4.90005 1.2376 4.77922L3.76676 2.25005C3.8876 2.12922 4.0876 2.12922 4.20843 2.25005C4.32926 2.37088 4.32926 2.57088 4.20843 2.69172L1.9001 5.00005L4.20843 7.30838C4.32926 7.42922 4.32926 7.62922 4.20843 7.75005C4.1501 7.81255 4.06676 7.84172 3.9876 7.84172Z" fill="#292D32"/>
<path d="M8.5418 5.3125H1.5293C1.35846 5.3125 1.2168 5.17083 1.2168 5C1.2168 4.82917 1.35846 4.6875 1.5293 4.6875H8.5418C8.71263 4.6875 8.8543 4.82917 8.8543 5C8.8543 5.17083 8.71263 5.3125 8.5418 5.3125Z" fill="#292D32"/>
</svg>
