<svg width="24" height="24" viewBox="0 0 24 24" fill="none" xmlns="http://www.w3.org/2000/svg">
<path d="M19.24 5.58006H18.84L15.46 2.20006C15.19 1.93006 14.75 1.93006 14.47 2.20006C14.2 2.47006 14.2 2.91006 14.47 3.19006L16.86 5.58006H7.14L9.53 3.19006C9.8 2.92006 9.8 2.48006 9.53 2.20006C9.26 1.93006 8.82 1.93006 8.54 2.20006L5.17 5.58006H4.77C3.87 5.58006 2 5.58006 2 8.14006C2 9.11006 2.2 9.75006 2.62 10.1701C2.86 10.4201 3.15 10.5501 3.46 10.6201C3.75 10.6901 4.06 10.7001 4.36 10.7001H19.64C19.95 10.7001 20.24 10.6801 20.52 10.6201C21.36 10.4201 22 9.82006 22 8.14006C22 5.58006 20.13 5.58006 19.24 5.58006Z" fill="#B3261E"/>
<path d="M19.0497 12H4.86967C4.24967 12 3.77967 12.55 3.87967 13.16L4.71967 18.3C4.99967 20.02 5.74967 22 9.07967 22H14.6897C18.0597 22 18.6597 20.31 19.0197 18.42L20.0297 13.19C20.1497 12.57 19.6797 12 19.0497 12ZM10.6097 18.45C10.6097 18.84 10.2997 19.15 9.91967 19.15C9.52967 19.15 9.21967 18.84 9.21967 18.45V15.15C9.21967 14.77 9.52967 14.45 9.91967 14.45C10.2997 14.45 10.6097 14.77 10.6097 15.15V18.45ZM14.8897 18.45C14.8897 18.84 14.5797 19.15 14.1897 19.15C13.8097 19.15 13.4897 18.84 13.4897 18.45V15.15C13.4897 14.77 13.8097 14.45 14.1897 14.45C14.5797 14.45 14.8897 14.77 14.8897 15.15V18.45Z" fill="#B3261E"/>
</svg>
