<svg width="24" height="24" viewBox="0 0 24 24" fill="none" xmlns="http://www.w3.org/2000/svg">
<path d="M13.3962 17.4201H10.8863C9.24625 17.4201 7.91625 16.0401 7.91625 14.3401C7.91625 13.9301 8.25625 13.5901 8.66625 13.5901C9.07625 13.5901 9.41625 13.9301 9.41625 14.3401C9.41625 15.2101 10.0763 15.9201 10.8863 15.9201H13.3962C14.0462 15.9201 14.5863 15.3401 14.5863 14.6401C14.5863 13.7701 14.2763 13.6001 13.7663 13.4201L9.73625 12.0001C8.95625 11.7301 7.90625 11.1501 7.90625 9.36008C7.90625 7.82008 9.11625 6.58008 10.5963 6.58008H13.1062C14.7462 6.58008 16.0763 7.96008 16.0763 9.66008C16.0763 10.0701 15.7362 10.4101 15.3263 10.4101C14.9163 10.4101 14.5763 10.0701 14.5763 9.66008C14.5763 8.79008 13.9162 8.08008 13.1062 8.08008H10.5963C9.94625 8.08008 9.40625 8.66008 9.40625 9.36008C9.40625 10.2301 9.71625 10.4001 10.2262 10.5801L14.2563 12.0001C15.0363 12.2701 16.0863 12.8501 16.0863 14.6401C16.0763 16.1701 14.8762 17.4201 13.3962 17.4201Z" fill="#292D32"/>
<path d="M12 18.75C11.59 18.75 11.25 18.41 11.25 18V6C11.25 5.59 11.59 5.25 12 5.25C12.41 5.25 12.75 5.59 12.75 6V18C12.75 18.41 12.41 18.75 12 18.75Z" fill="#292D32"/>
<path d="M15 22.75H9C3.57 22.75 1.25 20.43 1.25 15V9C1.25 3.57 3.57 1.25 9 1.25H15C20.43 1.25 22.75 3.57 22.75 9V15C22.75 20.43 20.43 22.75 15 22.75ZM9 2.75C4.39 2.75 2.75 4.39 2.75 9V15C2.75 19.61 4.39 21.25 9 21.25H15C19.61 21.25 21.25 19.61 21.25 15V9C21.25 4.39 19.61 2.75 15 2.75H9Z" fill="#292D32"/>
</svg>
