<svg width="24" height="24" viewBox="0 0 24 24" fill="none" xmlns="http://www.w3.org/2000/svg">
<path d="M21 2.00012H9C8.45 2.00012 8 2.45012 8 3.00012V6.00012C8 6.55012 8.45 7.00012 9 7.00012H21C21.55 7.00012 22 6.55012 22 6.00012V3.00012C22 2.45012 21.55 2.00012 21 2.00012Z" fill="#E6E1E5"/>
<path d="M11 17.0001H8C7.45 17.0001 7 17.4501 7 18.0001V21.0001C7 21.5501 7.45 22.0001 8 22.0001H11C11.55 22.0001 12 21.5501 12 21.0001V18.0001C12 17.4501 11.55 17.0001 11 17.0001Z" fill="#E6E1E5"/>
<path d="M6 9.50012H3C2.45 9.50012 2 9.95012 2 10.5001V13.5001C2 14.0501 2.45 14.5001 3 14.5001H6C6.55 14.5001 7 14.0501 7 13.5001V10.5001C7 9.95012 6.55 9.50012 6 9.50012Z" fill="#E6E1E5"/>
<path d="M17 9.64014H10.5C9.95 9.64014 9.5 10.0901 9.5 10.6401V13.3601C9.5 13.9101 9.95 14.3601 10.5 14.3601H17C17.55 14.3601 18 13.9101 18 13.3601V10.6401C18 10.0901 17.55 9.64014 17 9.64014Z" fill="#E6E1E5"/>
</svg>
