<svg width="18" height="18" viewBox="0 0 18 18" fill="none" xmlns="http://www.w3.org/2000/svg">
<path d="M15 5.28V12.72C15 13.86 14.895 14.67 14.625 15.2475C14.625 15.255 14.6175 15.27 14.61 15.2775C14.445 15.4875 14.2275 15.5925 13.9725 15.5925C13.575 15.5925 13.095 15.33 12.5775 14.775C11.9625 14.115 11.0175 14.1675 10.4775 14.8875L9.72002 15.8925C9.42002 16.2975 9.0225 16.5 8.625 16.5C8.2275 16.5 7.82998 16.2975 7.52998 15.8925L6.76501 14.88C6.23251 14.1675 5.29499 14.115 4.67999 14.7675L4.67249 14.775C3.82499 15.6825 3.07501 15.8175 2.64001 15.2775C2.63251 15.27 2.625 15.255 2.625 15.2475C2.355 14.67 2.25 13.86 2.25 12.72V5.28C2.25 4.14 2.355 3.33 2.625 2.7525C2.625 2.745 2.62501 2.7375 2.64001 2.73C3.06751 2.1825 3.82499 2.3175 4.67249 3.225L4.67999 3.2325C5.29499 3.885 6.23251 3.8325 6.76501 3.12L7.52998 2.1075C7.82998 1.7025 8.2275 1.5 8.625 1.5C9.0225 1.5 9.42002 1.7025 9.72002 2.1075L10.4775 3.1125C11.0175 3.8325 11.9625 3.885 12.5775 3.225C13.095 2.67 13.575 2.4075 13.9725 2.4075C14.2275 2.4075 14.445 2.52 14.61 2.73C14.625 2.7375 14.625 2.745 14.625 2.7525C14.895 3.33 15 4.14 15 5.28Z" stroke="#21005D" stroke-width="1.5" stroke-linecap="round" stroke-linejoin="round"/>
<path d="M6 7.6875H12" stroke="#21005D" stroke-width="1.5" stroke-linecap="round" stroke-linejoin="round"/>
<path d="M6 10.3125H10.5" stroke="#21005D" stroke-width="1.5" stroke-linecap="round" stroke-linejoin="round"/>
</svg>
