<svg width="24" height="24" viewBox="0 0 24 24" fill="none" xmlns="http://www.w3.org/2000/svg">
<path d="M5.47021 9C7.40321 9 8.97021 7.433 8.97021 5.5C8.97021 3.567 7.40321 2 5.47021 2C3.53722 2 1.97021 3.567 1.97021 5.5C1.97021 7.433 3.53722 9 5.47021 9Z" stroke="#938F99" stroke-width="1.5"/>
<path d="M16.9702 15H19.9702C21.0702 15 21.9702 15.9 21.9702 17V20C21.9702 21.1 21.0702 22 19.9702 22H16.9702C15.8702 22 14.9702 21.1 14.9702 20V17C14.9702 15.9 15.8702 15 16.9702 15Z" stroke="#938F99" stroke-width="1.5"/>
<path d="M12.0002 5H14.6802C16.5302 5 17.3902 7.29 16.0002 8.51L8.01019 15.5C6.62019 16.71 7.48019 19 9.32019 19H12.0002" stroke="#938F99" stroke-width="1.5" stroke-linecap="round" stroke-linejoin="round"/>
<path d="M5.48622 5.5H5.49777" stroke="#938F99" stroke-width="2" stroke-linecap="round" stroke-linejoin="round"/>
<path d="M18.4862 18.5H18.4978" stroke="#938F99" stroke-width="2" stroke-linecap="round" stroke-linejoin="round"/>
</svg>
