<svg width="18" height="18" viewBox="0 0 18 18" fill="none" xmlns="http://www.w3.org/2000/svg">
<path d="M16.5004 3.8325V12.3525C16.5004 13.44 15.7204 13.8975 14.7679 13.3725L13.3204 12.5625C13.2004 12.495 13.1254 12.3675 13.1254 12.2325V6.7425C13.1254 4.8375 11.5729 3.285 9.66787 3.285H6.61537C6.33787 3.285 6.14287 2.9925 6.27037 2.7525C6.66037 2.01 7.44037 1.5 8.33287 1.5H14.1679C15.4504 1.5 16.5004 2.55 16.5004 3.8325Z" fill="#6750A4"/>
<path d="M9.6675 4.40991H3.8325C2.55 4.40991 1.5 5.45991 1.5 6.74241V15.2624C1.5 16.3499 2.28 16.8074 3.2325 16.2824L6.18 14.6399C6.495 14.4674 7.005 14.4674 7.32 14.6399L10.2675 16.2824C11.22 16.8074 12 16.3499 12 15.2624V6.74241C12 5.45991 10.95 4.40991 9.6675 4.40991ZM8.25 9.56241H7.3125V10.4999C7.3125 10.8074 7.0575 11.0624 6.75 11.0624C6.4425 11.0624 6.1875 10.8074 6.1875 10.4999V9.56241H5.25C4.9425 9.56241 4.6875 9.30741 4.6875 8.99991C4.6875 8.69241 4.9425 8.43741 5.25 8.43741H6.1875V7.49991C6.1875 7.19241 6.4425 6.93741 6.75 6.93741C7.0575 6.93741 7.3125 7.19241 7.3125 7.49991V8.43741H8.25C8.5575 8.43741 8.8125 8.69241 8.8125 8.99991C8.8125 9.30741 8.5575 9.56241 8.25 9.56241Z" fill="#6750A4"/>
</svg>
