<svg width="18" height="18" viewBox="0 0 18 18" fill="none" xmlns="http://www.w3.org/2000/svg">
<path d="M13.7476 4.2525L4.94256 13.0575C4.61256 13.3875 4.05756 13.3425 3.78756 12.9525C2.85756 11.595 2.31006 9.99 2.31006 8.34V5.0475C2.31006 4.4325 2.77506 3.735 3.34506 3.5025L7.52256 1.7925C8.46756 1.4025 9.51756 1.4025 10.4626 1.7925L13.5001 3.03C13.9951 3.2325 14.1226 3.8775 13.7476 4.2525Z" fill="white"/>
<path d="M14.4525 5.27997C14.94 4.86747 15.6825 5.21997 15.6825 5.85747V8.33997C15.6825 12.0075 13.02 15.4425 9.38251 16.4475C9.13501 16.515 8.865 16.515 8.61 16.4475C7.545 16.1475 6.55501 15.645 5.70751 14.985C5.34751 14.7075 5.31001 14.1825 5.62501 13.86C7.26001 12.1875 12.045 7.31247 14.4525 5.27997Z" fill="white"/>
</svg>
