<svg width="24" height="24" viewBox="0 0 24 24" fill="none" xmlns="http://www.w3.org/2000/svg">
<path d="M9 22H15C20 22 22 20 22 15V9C22 4 20 2 15 2H9C4 2 2 4 2 9V15C2 20 4 22 9 22Z" stroke="#938F99" stroke-width="1.5" stroke-linecap="round" stroke-linejoin="round"/>
<path d="M15.5698 18.5001V14.6001" stroke="#938F99" stroke-width="1.5" stroke-miterlimit="10" stroke-linecap="round" stroke-linejoin="round"/>
<path d="M15.5698 7.45V5.5" stroke="#938F99" stroke-width="1.5" stroke-miterlimit="10" stroke-linecap="round" stroke-linejoin="round"/>
<path d="M15.5702 12.6502C17.0062 12.6502 18.1702 11.4861 18.1702 10.0502C18.1702 8.61426 17.0062 7.4502 15.5702 7.4502C14.1343 7.4502 12.9702 8.61426 12.9702 10.0502C12.9702 11.4861 14.1343 12.6502 15.5702 12.6502Z" stroke="#938F99" stroke-width="1.5" stroke-miterlimit="10" stroke-linecap="round" stroke-linejoin="round"/>
<path d="M8.43018 18.4998V16.5498" stroke="#938F99" stroke-width="1.5" stroke-miterlimit="10" stroke-linecap="round" stroke-linejoin="round"/>
<path d="M8.43018 9.4V5.5" stroke="#938F99" stroke-width="1.5" stroke-miterlimit="10" stroke-linecap="round" stroke-linejoin="round"/>
<path d="M8.43008 16.5501C9.86602 16.5501 11.0301 15.386 11.0301 13.9501C11.0301 12.5142 9.86602 11.3501 8.43008 11.3501C6.99414 11.3501 5.83008 12.5142 5.83008 13.9501C5.83008 15.386 6.99414 16.5501 8.43008 16.5501Z" stroke="#938F99" stroke-width="1.5" stroke-miterlimit="10" stroke-linecap="round" stroke-linejoin="round"/>
</svg>
