<svg width="19" height="18" viewBox="0 0 19 18" fill="none" xmlns="http://www.w3.org/2000/svg">
<path d="M17.2702 6.2025L17.0527 4.125C16.7377 1.86 15.7102 0.9375 13.5127 0.9375H11.7427H10.6327H8.35273H7.24273H5.44273C3.23773 0.9375 2.21773 1.86 1.89523 4.1475L1.69273 6.21C1.61773 7.0125 1.83523 7.7925 2.30773 8.4C2.87773 9.1425 3.75523 9.5625 4.73023 9.5625C5.67523 9.5625 6.58273 9.09 7.15273 8.3325C7.66273 9.09 8.53273 9.5625 9.50023 9.5625C10.4677 9.5625 11.3152 9.1125 11.8327 8.3625C12.4102 9.105 13.3027 9.5625 14.2327 9.5625C15.2302 9.5625 16.1302 9.12 16.6927 8.34C17.1427 7.74 17.3452 6.9825 17.2702 6.2025Z" fill="white"/>
<path d="M9.01234 12.4952C8.05984 12.5927 7.33984 13.4027 7.33984 14.3627V16.4177C7.33984 16.6202 7.50484 16.7852 7.70734 16.7852H11.2848C11.4873 16.7852 11.6523 16.6202 11.6523 16.4177V14.6252C11.6598 13.0577 10.7373 12.3152 9.01234 12.4952Z" fill="white"/>
<path d="M16.5277 10.8001V13.0351C16.5277 15.1051 14.8477 16.7851 12.7777 16.7851C12.5752 16.7851 12.4102 16.6201 12.4102 16.4176V14.6251C12.4102 13.6651 12.1177 12.9151 11.5477 12.4051C11.0452 11.9476 10.3627 11.7226 9.51516 11.7226C9.32766 11.7226 9.14016 11.7301 8.93766 11.7526C7.60266 11.8876 6.59016 13.0126 6.59016 14.3626V16.4176C6.59016 16.6201 6.42516 16.7851 6.22266 16.7851C4.15266 16.7851 2.47266 15.1051 2.47266 13.0351V10.8151C2.47266 10.2901 2.99016 9.93756 3.47766 10.1101C3.68016 10.1776 3.88266 10.2301 4.09266 10.2601C4.18266 10.2751 4.28016 10.2901 4.37016 10.2901C4.49016 10.3051 4.61016 10.3126 4.73016 10.3126C5.60016 10.3126 6.45516 9.99006 7.13016 9.43506C7.77516 9.99006 8.61516 10.3126 9.50016 10.3126C10.3927 10.3126 11.2177 10.0051 11.8627 9.45006C12.5377 9.99756 13.3777 10.3126 14.2327 10.3126C14.3677 10.3126 14.5027 10.3051 14.6302 10.2901C14.7202 10.2826 14.8027 10.2751 14.8852 10.2601C15.1177 10.2301 15.3277 10.1626 15.5377 10.0951C16.0252 9.93006 16.5277 10.2901 16.5277 10.8001Z" fill="white"/>
</svg>
