<svg width="18" height="18" viewBox="0 0 18 18" fill="none" xmlns="http://www.w3.org/2000/svg">
<path d="M11.4454 16.6875H6.55535C2.87285 16.6875 1.29785 15.1125 1.29785 11.43V11.3325C1.29785 8.00246 2.61035 6.39746 5.55035 6.11996C5.85035 6.09746 6.13535 6.32246 6.16535 6.62996C6.19535 6.93746 5.97035 7.21496 5.65535 7.24496C3.30035 7.46246 2.42285 8.57246 2.42285 11.34V11.4375C2.42285 14.49 3.50285 15.57 6.55535 15.57H11.4454C14.4979 15.57 15.5779 14.49 15.5779 11.4375V11.34C15.5779 8.55746 14.6854 7.44746 12.2854 7.24496C11.9779 7.21496 11.7454 6.94496 11.7754 6.63746C11.8054 6.32996 12.0679 6.09746 12.3829 6.12746C15.3679 6.38246 16.7029 7.99496 16.7029 11.3475V11.445C16.7029 15.1125 15.1279 16.6875 11.4454 16.6875Z" fill="#292D32"/>
<path d="M9 11.8126C8.6925 11.8126 8.4375 11.5576 8.4375 11.2501V2.71509C8.4375 2.40759 8.6925 2.15259 9 2.15259C9.3075 2.15259 9.5625 2.40759 9.5625 2.71509V11.2501C9.5625 11.5576 9.3075 11.8126 9 11.8126Z" fill="#292D32"/>
<path d="M11.5124 4.95008C11.3699 4.95008 11.2274 4.89758 11.1149 4.78508L8.99988 2.67008L6.88488 4.78508C6.66738 5.00258 6.30738 5.00258 6.08988 4.78508C5.87238 4.56758 5.87238 4.20758 6.08988 3.99008L8.60238 1.47758C8.81988 1.26008 9.17988 1.26008 9.39738 1.47758L11.9099 3.99008C12.1274 4.20758 12.1274 4.56758 11.9099 4.78508C11.8049 4.89758 11.6549 4.95008 11.5124 4.95008Z" fill="#292D32"/>
</svg>
