<svg width="18" height="19" viewBox="0 0 18 19" fill="none" xmlns="http://www.w3.org/2000/svg">
<path d="M16.0874 10.73V11.48C16.0874 11.6825 15.9299 11.8475 15.7199 11.855H14.6249C14.2274 11.855 13.8674 11.5625 13.8374 11.1725C13.8149 10.94 13.9049 10.7225 14.0549 10.5725C14.1899 10.43 14.3774 10.355 14.5799 10.355H15.7124C15.9299 10.3625 16.0874 10.5275 16.0874 10.73Z" fill="white"/>
<path d="M13.4924 10.0175C13.1174 10.385 12.9374 10.9325 13.0874 11.5025C13.2824 12.2 13.9649 12.6425 14.6849 12.6425H15.3374C15.7499 12.6425 16.0874 12.98 16.0874 13.3925V13.535C16.0874 15.0875 14.8199 16.355 13.2674 16.355H4.6574C3.1049 16.355 1.8374 15.0875 1.8374 13.535V8.48748C1.8374 7.56498 2.2799 6.74748 2.9624 6.23748C3.4349 5.87748 4.0199 5.66748 4.6574 5.66748H13.2674C14.8199 5.66748 16.0874 6.93498 16.0874 8.48748V8.81748C16.0874 9.22998 15.7499 9.56748 15.3374 9.56748H14.5724C14.1524 9.56748 13.7699 9.73248 13.4924 10.0175Z" fill="white"/>
<path d="M12.1498 4.115C12.3523 4.3175 12.1798 4.6325 11.8948 4.6325L6.1348 4.625C5.8048 4.625 5.6323 4.22 5.8723 3.9875L7.0873 2.765C8.1148 1.745 9.7798 1.745 10.8073 2.765L12.1198 4.0925C12.1273 4.1 12.1423 4.1075 12.1498 4.115Z" fill="white"/>
</svg>
